# xmcd CD database file
#
# Track frame offsets:
#	150
#	17140
#	41189
#	60741
#	80387
#	100433
#	120650
#	138024
#	159828
#	183351
#	199990
#	225632
#	244757
#	276504
#	299311
#
# Disc length: 4236 seconds
#
# Revision: 0
# Processed by: cddbd v1.5.1PL0 Copyright (c) Steve Scherf et al.
# Submitted via: NeoAudio 9.9.9
#
DISCID=d4108a0f
DTITLE=Giant Steps - The Elephant Sessions
DYEAR=1999
DGENRE=Jazz
TTITLE0=My Baby Just Cares for Me
TTITLE1=Just One of Those Things
TTITLE2=Summertime
TTITLE3=Gee Baby
TTITLE4=can't Take that Away From Me
TTITLE5=Do it the Hard Way
TTITLE6=It Had to be You
TTITLE7=Stompin' at the Savoy
TTITLE8=Fly Me to the Moon
TTITLE9=The Lady is a Tramp
TTITLE10=I wanna talk about You
TTITLE11=Straighten Up and Fly Right
TTITLE12=Big City
TTITLE13=One for My Baby
TTITLE14=It's Alright with Me
EXTD=YEAR: 1999
EXTT0=
EXTT1=
EXTT2=
EXTT3=
EXTT4=
EXTT5=
EXTT6=
EXTT7=
EXTT8=
EXTT9=
EXTT10=
EXTT11=
EXTT12=
EXTT13=
EXTT14=
PLAYORDER=
